<svg width="58" height="81" viewBox="0 0 58 81" fill="none" xmlns="http://www.w3.org/2000/svg">
<g id="Group 95">
<g id="Group 94">
<path id="Path 319" d="M28.6853 16.4609H0.233887L5.56562 74.3101L28.6853 80.865L51.7971 74.3101L57.1367 16.4609H28.6853ZM43.2465 64.4609L28.6853 68.5969L14.1241 64.4609L13.0962 53.3811H20.2878L20.7637 58.926L28.6853 61.209L36.4849 58.959L37.2849 49.7971H12.8252L12.7822 49.9331L14.7821 28.2729H43.5805L45.1624 39.615H37.9058L37.6408 35.4651H20.6268L20.2958 42.7161H45.2504L43.2465 64.4609Z" fill="#E7A020"/>
<g id="Group 93">
<path id="Path 320" d="M23.1479 7.92822H18.0879V11.5623H26.7748V0.762207H23.1489L23.1479 7.92822Z" fill="#E7A020"/>
<path id="Path 321" d="M39.2833 0.816406H30.4573V4.59839C31.6363 5.78039 32.2573 6.34547 33.9573 8.05347H30.4573V11.5034H39.2833V8.05347L35.7582 4.59546H39.2833V0.816406Z" fill="#E7A020"/>
</g>
</g>
</g>
</svg>
