<svg width="164" height="162" viewBox="0 0 164 162" fill="none" xmlns="http://www.w3.org/2000/svg">
<g id="Group 479">
<g id="Group 473">
<path id="Path 752" d="M124.019 62.095H72.3591V24.9951H124.019V62.095Z" fill="white"/>
<path id="Path 753" d="M124.019 62.886H72.3591C72.1548 62.8852 71.9591 62.8016 71.8149 62.6533C71.6708 62.505 71.59 62.3041 71.5902 62.095V24.9951C71.59 24.8915 71.6096 24.7887 71.6481 24.6929C71.6866 24.597 71.7432 24.51 71.8146 24.4365C71.886 24.3631 71.9709 24.3048 72.0643 24.2649C72.1577 24.225 72.2579 24.2044 72.3591 24.2041H124.019C124.121 24.2044 124.221 24.225 124.314 24.2649C124.408 24.3048 124.492 24.3631 124.564 24.4365C124.635 24.51 124.691 24.5973 124.73 24.6931C124.768 24.7889 124.788 24.8916 124.787 24.9951V62.095C124.788 62.3041 124.707 62.5048 124.563 62.6531C124.419 62.8014 124.224 62.8852 124.019 62.886ZM73.1281 61.304H123.25V25.7891H73.1281V61.304Z" fill="#1ABC9C"/>
</g>
<g id="Group 474">
<path id="Rectangle 353" d="M118.659 32.5527H84.3651V33.3437H118.659V32.5527Z" fill="#1ABC9C"/>
<path id="Rectangle 354" d="M118.658 37.5679H77.9175V38.3589H118.658V37.5679Z" fill="#1ABC9C"/>
<path id="Rectangle 355" d="M118.658 42.583H77.9175V43.374H118.658V42.583Z" fill="#1ABC9C"/>
<path id="Rectangle 356" d="M100.607 47.5977H77.9175V48.3887H100.607V47.5977Z" fill="#1ABC9C"/>
</g>
<g id="Group 475">
<path id="Path 754" d="M51.6858 131.846L51.7512 125.238C51.7512 118.123 55.4641 113.333 61.1583 111.107C61.3263 111.041 61.4983 110.978 61.6722 110.917C64.515 109.954 67.5704 109.858 70.4656 110.641C72.4055 111.045 74.2482 111.837 75.8879 112.972C77.5276 114.107 78.9319 115.563 80.0201 117.255C81.5321 119.65 82.4322 122.395 82.6377 125.238L82.6776 131.846H51.6858Z" fill="#1BAA8F"/>
<path id="Ellipse 28" d="M66.6278 104.669C72.475 104.669 77.215 99.7229 77.215 93.6212C77.215 87.5196 72.475 82.5732 66.6278 82.5732C60.7806 82.5732 56.0405 87.5196 56.0405 93.6212C56.0405 99.7229 60.7806 104.669 66.6278 104.669Z" fill="#1BAA8F"/>
</g>
<g id="Group 476">
<path id="Path 755" d="M88.7431 131.846L88.8086 125.238C88.8086 118.123 92.5214 113.333 98.2157 111.107C98.3837 111.04 98.555 110.977 98.7296 110.917C101.572 109.954 104.628 109.858 107.523 110.641C109.463 111.045 111.305 111.837 112.945 112.972C114.585 114.107 115.989 115.563 117.077 117.255C118.589 119.65 119.49 122.395 119.695 125.238L119.735 131.846H88.7431Z" fill="#1BAA8F"/>
<path id="Ellipse 29" d="M103.686 104.669C109.533 104.669 114.273 99.7229 114.273 93.6212C114.273 87.5196 109.533 82.5732 103.686 82.5732C97.8389 82.5732 93.0988 87.5196 93.0988 93.6212C93.0988 99.7229 97.8389 104.669 103.686 104.669Z" fill="#1BAA8F"/>
</g>
<g id="Group 477">
<path id="Path 756" d="M70.1363 122.351L70.2018 115.743C70.2018 108.628 73.9145 103.843 79.6078 101.612C79.7768 101.546 79.9478 101.483 80.1227 101.422C82.9656 100.459 86.0208 100.363 88.9161 101.146C90.8558 101.55 92.6983 102.342 94.3379 103.477C95.9774 104.612 97.3817 106.068 98.4697 107.76C99.9823 110.155 100.883 112.9 101.088 115.743L101.128 122.351H70.1363Z" fill="#1BAA8F"/>
<path id="Ellipse 30" d="M85.0783 95.1741C90.9255 95.1741 95.6656 90.2278 95.6656 84.1261C95.6656 78.0245 90.9255 73.0781 85.0783 73.0781C79.2311 73.0781 74.4911 78.0245 74.4911 84.1261C74.4911 90.2278 79.2311 95.1741 85.0783 95.1741Z" fill="#1BAA8F"/>
</g>
<g id="Group 478">
<path id="Path 757" d="M107.195 122.351L107.26 115.743C107.26 108.628 110.973 103.843 116.666 101.612C116.835 101.546 117.006 101.483 117.18 101.422C120.023 100.459 123.078 100.363 125.974 101.146C127.913 101.55 129.756 102.342 131.395 103.477C133.035 104.612 134.439 106.068 135.527 107.76C137.039 110.155 137.94 112.9 138.146 115.743L138.186 122.351H107.195Z" fill="#1BAA8F"/>
<path id="Ellipse 31" d="M122.137 95.1741C127.984 95.1741 132.724 90.2278 132.724 84.1261C132.724 78.0245 127.984 73.0781 122.137 73.0781C116.289 73.0781 111.549 78.0245 111.549 84.1261C111.549 90.2278 116.289 95.1741 122.137 95.1741Z" fill="#1BAA8F"/>
</g>
<path id="Path 758" d="M68.3709 45.2552C68.1722 45.2559 67.9813 45.1763 67.8394 45.034C67.6919 44.8885 67.6066 44.6892 67.6022 44.4796C67.5978 44.27 67.6746 44.067 67.8159 43.9151L78.4579 32.5091C78.6004 32.3584 78.7956 32.2716 79.0005 32.2682C79.2055 32.2647 79.4034 32.3447 79.5507 32.4906C79.698 32.6365 79.7826 32.8362 79.786 33.046C79.7894 33.2558 79.7114 33.4585 79.5688 33.6092L68.9268 45.0172C68.8543 45.0929 68.7678 45.1528 68.6724 45.1937C68.5769 45.2346 68.4744 45.2556 68.3709 45.2552Z" fill="#1ABC9C"/>
<path id="Path 759" d="M31.3594 83.1759V64.62C31.3592 64.4468 31.3771 64.274 31.4131 64.1048C31.6515 62.8447 32.1966 61.6664 32.9979 60.6791C33.7992 59.6917 34.8308 58.9271 35.9974 58.4559C36.3199 58.3426 36.6588 58.2855 36.9998 58.287H53.0157L66.705 41.8949C66.869 41.702 67.0623 41.5375 67.2775 41.4078C67.6215 41.2062 68.0106 41.0996 68.407 41.098C68.9322 41.0516 69.4577 41.1828 69.9029 41.4718C71.1085 42.3538 70.7705 44.5619 70.7412 44.7359C70.6293 45.3997 70.3684 46.0278 69.9791 46.5709L53.4865 67.9649L53.5784 111.325C53.5975 112.44 53.2381 113.528 52.5612 114.403C52.3865 114.68 52.152 114.912 51.8758 115.081C51.5996 115.251 51.289 115.353 50.9681 115.38C50.6471 115.408 50.3244 115.359 50.0246 115.239C49.7249 115.118 49.4562 114.929 49.2393 114.685C48.6719 114.189 48.2178 113.571 47.9091 112.876C47.6003 112.181 47.4444 111.425 47.4523 110.661C47.4308 104.811 47.3653 86.9149 47.3653 86.9149H44.3521L44.5319 112.267C44.5509 112.853 44.4098 113.434 44.1243 113.943C43.8388 114.452 43.4204 114.869 42.9159 115.148C42.5672 115.327 42.1812 115.417 41.7911 115.41C41.401 115.404 41.0183 115.301 40.6756 115.11C40.0377 114.761 39.5061 114.238 39.1395 113.6C38.7729 112.962 38.5853 112.232 38.5973 111.492L38.3257 68.577H37.1963V83.5338C37.2086 84.1174 37.0859 84.6958 36.8381 85.2215C36.5904 85.7473 36.2247 86.2055 35.7708 86.5589C35.4058 86.851 34.9605 87.0186 34.4976 87.0379C34.0347 87.0573 33.5775 86.9274 33.1904 86.6668C32.6167 86.2963 32.1465 85.7801 31.8256 85.1683C31.5047 84.5565 31.3441 83.8701 31.3594 83.1759Z" fill="#1BAA8F"/>
<path id="Ellipse 32" d="M45.5773 55.9438C49.6336 55.9438 52.9218 52.3858 52.9218 47.9968C52.9218 43.6078 49.6336 40.0498 45.5773 40.0498C41.5211 40.0498 38.2329 43.6078 38.2329 47.9968C38.2329 52.3858 41.5211 55.9438 45.5773 55.9438Z" fill="#1ABC9C"/>
<path id="Path 760" d="M82.1305 0C37.3066 0 0.969299 36.1331 0.969299 80.7061C0.969299 125.279 37.3066 161.413 82.1305 161.413C126.954 161.413 163.292 125.279 163.292 80.709C163.292 36.139 126.954 0 82.1305 0ZM82.1305 155.623C40.5221 155.623 6.79246 122.082 6.79246 80.7061C6.79246 39.3301 40.5221 5.79004 82.1305 5.79004C123.739 5.79004 157.469 39.3311 157.469 80.7061C157.469 122.081 123.739 155.623 82.1305 155.623Z" fill="#1BAA8F"/>
</g>
</svg>
