<svg width="160" height="188" viewBox="0 0 160 188" fill="none" xmlns="http://www.w3.org/2000/svg">
<g id="Group 492">
<path id="Path 784" d="M158.01 45.5493L157.566 45.2856L81.7739 0.509277C81.2133 0.175432 80.5763 0 79.9278 0C79.2792 0 78.6422 0.175432 78.0816 0.509277L2.28924 45.2856L1.84663 45.5493C1.28611 45.881 0.820525 46.358 0.496454 46.9316C0.172384 47.5053 0.00117861 48.1557 0 48.8184V138.937C0.00134957 139.599 0.172631 140.25 0.496693 140.823C0.820755 141.397 1.28625 141.873 1.84663 142.205L77.6205 186.98L78.0816 187.245C78.642 187.579 79.2791 187.755 79.9278 187.755C80.5765 187.755 81.2135 187.579 81.7739 187.245L82.2351 186.98L158.01 142.205C158.57 141.873 159.035 141.396 159.359 140.823C159.683 140.249 159.854 139.599 159.855 138.937V48.8184C159.854 48.1558 159.683 47.5053 159.359 46.9316C159.035 46.358 158.57 45.8812 158.01 45.5493Z" fill="#1BAA8F"/>
<path id="Path 785" d="M79.9282 4.87451L152.953 48.0063L79.9282 91.1577L6.90382 48.0063L79.9282 4.87451Z" fill="white"/>
<path id="Path 786" d="M4.61554 138.389V52.1055L77.6214 95.2373V181.521L4.61554 138.389Z" fill="white"/>
<path id="Path 787" d="M155.241 138.389L82.2351 181.521V95.2373L155.241 52.1055V138.389Z" fill="white"/>
</g>
</svg>
